<svg width="22" height="23" viewBox="0 0 22 23" fill="none" xmlns="http://www.w3.org/2000/svg">
<path d="M21.7008 19.2162L17.4165 14.8885C17.2231 14.6932 16.961 14.5847 16.686 14.5847H15.9855C17.1716 13.0524 17.8763 11.1251 17.8763 9.0286C17.8763 4.04117 13.8756 0 8.93815 0C4.00068 0 0 4.04117 0 9.0286C0 14.016 4.00068 18.0572 8.93815 18.0572C11.0137 18.0572 12.9216 17.3453 14.4386 16.1473V16.8548C14.4386 17.1326 14.546 17.3974 14.7394 17.5927L19.0237 21.9204C19.4276 22.3284 20.0808 22.3284 20.4804 21.9204L21.6965 20.692C22.1004 20.284 22.1004 19.6242 21.7008 19.2162ZM8.93815 14.5847C5.90004 14.5847 3.43775 12.1018 3.43775 9.0286C3.43775 5.95974 5.89574 3.47254 8.93815 3.47254C11.9763 3.47254 14.4386 5.9554 14.4386 9.0286C14.4386 12.0975 11.9806 14.5847 8.93815 14.5847Z" fill="black"/>
</svg>
