<svg width="45" height="18" viewBox="0 0 45 18" fill="none" xmlns="http://www.w3.org/2000/svg">
<path d="M12.3165 14.2563C15.0045 14.2563 16.6012 12.1543 16.6012 8.59473C16.6012 7.25439 16.3449 6.12646 15.8541 5.25488C15.1437 3.8999 13.9205 3.16748 12.3751 3.16748C10.0753 3.16748 8.44936 4.71289 8.44936 6.88086C8.44936 8.91699 9.9142 10.3965 11.9284 10.3965C13.1662 10.3965 14.1696 9.81787 14.6676 8.81445H14.6896C14.6896 8.81445 14.7189 8.81445 14.7262 8.81445C14.7409 8.81445 14.7921 8.81445 14.7921 8.81445C14.7921 11.2314 13.8766 12.6743 12.3312 12.6743C11.423 12.6743 10.7199 12.1763 10.4782 11.3779H8.59584C8.91078 13.1138 10.3829 14.2563 12.3165 14.2563ZM12.3825 8.89502C11.1666 8.89502 10.3024 8.03076 10.3024 6.82227C10.3024 5.64307 11.2106 4.74219 12.3898 4.74219C13.569 4.74219 14.4772 5.65771 14.4772 6.85156C14.4772 8.03076 13.591 8.89502 12.3825 8.89502Z" fill="black"/>
<path d="M19.6923 14.1538C20.3881 14.1538 20.8642 13.6558 20.8642 12.9966C20.8642 12.3301 20.3881 11.8394 19.6923 11.8394C19.0038 11.8394 18.5204 12.3301 18.5204 12.9966C18.5204 13.6558 19.0038 14.1538 19.6923 14.1538ZM19.6923 8.66064C20.3881 8.66064 20.8642 8.16992 20.8642 7.51074C20.8642 6.84424 20.3881 6.35352 19.6923 6.35352C19.0038 6.35352 18.5204 6.84424 18.5204 7.51074C18.5204 8.16992 19.0038 8.66064 19.6923 8.66064Z" fill="black"/>
<path d="M27.72 14H29.529V12.0298H30.9573V10.4331H29.529V3.43115H26.863C24.9953 6.24365 23.5085 8.59473 22.5564 10.3452V12.0298H27.72V14ZM24.3069 10.3672C25.5373 8.19922 26.636 6.46338 27.6467 4.96924H27.7493V10.4771H24.3069V10.3672Z" fill="black"/>
<path d="M34.9859 14H36.8755V3.43115H34.9932L32.232 5.36475V7.18115L34.8614 5.33545H34.9859V14Z" fill="black"/>
</svg>
