<svg width="20" height="20" viewBox="0 0 20 20" fill="none" xmlns="http://www.w3.org/2000/svg">
<g clip-path="url(#clip0_131_468)">
<path d="M0.833333 4.99998H19.1667C19.3877 4.99998 19.5996 4.91218 19.7559 4.7559C19.9122 4.59962 20 4.38766 20 4.16664C20 3.94563 19.9122 3.73367 19.7559 3.57739C19.5996 3.42111 19.3877 3.33331 19.1667 3.33331H0.833333C0.61232 3.33331 0.400358 3.42111 0.244078 3.57739C0.0877974 3.73367 0 3.94563 0 4.16664C0 4.38766 0.0877974 4.59962 0.244078 4.7559C0.400358 4.91218 0.61232 4.99998 0.833333 4.99998Z" fill="black"/>
<path d="M0.833333 9.16666H12.5C12.721 9.16666 12.933 9.07887 13.0893 8.92259C13.2455 8.76631 13.3333 8.55435 13.3333 8.33333C13.3333 8.11232 13.2455 7.90036 13.0893 7.74408C12.933 7.5878 12.721 7.5 12.5 7.5H0.833333C0.61232 7.5 0.400358 7.5878 0.244078 7.74408C0.0877974 7.90036 0 8.11232 0 8.33333C0 8.55435 0.0877974 8.76631 0.244078 8.92259C0.400358 9.07887 0.61232 9.16666 0.833333 9.16666Z" fill="black"/>
<path d="M12.5 15.8334H0.833333C0.61232 15.8334 0.400358 15.9212 0.244078 16.0775C0.0877974 16.2337 0 16.4457 0 16.6667C0 16.8877 0.0877974 17.0997 0.244078 17.256C0.400358 17.4123 0.61232 17.5001 0.833333 17.5001H12.5C12.721 17.5001 12.933 17.4123 13.0893 17.256C13.2455 17.0997 13.3333 16.8877 13.3333 16.6667C13.3333 16.4457 13.2455 16.2337 13.0893 16.0775C12.933 15.9212 12.721 15.8334 12.5 15.8334Z" fill="black"/>
<path d="M19.1667 11.6666H0.833333C0.61232 11.6666 0.400358 11.7544 0.244078 11.9107C0.0877974 12.067 0 12.2789 0 12.5C0 12.721 0.0877974 12.9329 0.244078 13.0892C0.400358 13.2455 0.61232 13.3333 0.833333 13.3333H19.1667C19.3877 13.3333 19.5996 13.2455 19.7559 13.0892C19.9122 12.9329 20 12.721 20 12.5C20 12.2789 19.9122 12.067 19.7559 11.9107C19.5996 11.7544 19.3877 11.6666 19.1667 11.6666Z" fill="black"/>
</g>
<defs>
<clipPath id="clip0_131_468">
<rect width="20" height="20" fill="white"/>
</clipPath>
</defs>
</svg>
