<svg width="38" height="38" viewBox="0 0 38 38" fill="none" xmlns="http://www.w3.org/2000/svg">
<path d="M34.911 0.109545L11.1632 7.1022C10.6812 7.25319 10.26 7.55354 9.96087 7.9596C9.66175 8.36565 9.5003 8.85625 9.5 9.36007V28.7055C8.7223 28.5173 7.92527 28.4199 7.125 28.4154C3.19141 28.4154 0 30.5364 0 33.1517C0 35.767 3.19141 37.8879 7.125 37.8879C11.0586 37.8879 14.25 35.767 14.25 33.1517V15.8584L33.25 10.3081V23.97C32.4724 23.7811 31.6753 23.6835 30.875 23.6791C26.9414 23.6791 23.75 25.8001 23.75 28.4154C23.75 31.0307 26.9414 33.1517 30.875 33.1517C34.8086 33.1517 38 31.0314 38 28.4154V2.36593C37.9997 1.99416 37.9115 1.6277 37.7428 1.2962C37.574 0.964701 37.3293 0.677476 37.0286 0.457773C36.7278 0.238071 36.3794 0.0920624 36.0115 0.0315654C35.6436 -0.0289317 35.2666 -0.00221795 34.911 0.109545Z" fill="black"/>
</svg>
