<svg width="14" height="10" viewBox="0 0 14 10" fill="none" xmlns="http://www.w3.org/2000/svg">
<path d="M6.11679 9.71196C6.17795 9.80078 6.25978 9.8734 6.35524 9.92357C6.45069 9.97374 6.55691 9.99996 6.66475 9.99996C6.77259 9.99996 6.87881 9.97374 6.97427 9.92357C7.06973 9.8734 7.15156 9.80078 7.21271 9.71196L13.2123 1.04592C13.2817 0.945969 13.3224 0.828894 13.33 0.707419C13.3376 0.585944 13.3117 0.464715 13.2553 0.356903C13.1988 0.249092 13.1138 0.158821 13.0096 0.0958985C12.9055 0.0329763 12.786 -0.000190882 12.6643 8.26375e-07H0.665192C0.543764 0.000502396 0.424769 0.0340961 0.321005 0.097169C0.217241 0.160242 0.132633 0.250408 0.0762812 0.35797C0.0199293 0.465532 -0.006035 0.586421 0.00118045 0.707636C0.00839589 0.828851 0.0485181 0.945806 0.117232 1.04592L6.11679 9.71196Z" fill="#969696"/>
</svg>
