<svg width="22" height="25" viewBox="0 0 22 25" fill="none" xmlns="http://www.w3.org/2000/svg">
<path d="M19.1369 23.9997C18.767 23.9987 18.4009 23.9244 18.0599 23.7811C17.7188 23.6378 17.4096 23.4283 17.1499 23.1647L11 17.0508L4.85007 23.1687C4.4551 23.5695 3.94857 23.8419 3.3965 23.9505C2.84444 24.0592 2.27245 23.9989 1.7551 23.7777C1.23263 23.5676 0.78566 23.2048 0.472576 22.7367C0.159492 22.2685 -0.0051592 21.7169 0.000123235 21.1538V4.99994C0.000123235 3.67388 0.526902 2.40212 1.46457 1.46445C2.40224 0.526778 3.674 0 5.00007 0L16.9999 0C17.6565 0 18.3067 0.129327 18.9133 0.380598C19.52 0.631869 20.0711 1.00016 20.5354 1.46445C20.9997 1.92874 21.368 2.47993 21.6193 3.08655C21.8706 3.69317 21.9999 4.34334 21.9999 4.99994V21.1538C22.0055 21.7164 21.8414 22.2677 21.5291 22.7358C21.2167 23.2039 20.7706 23.567 20.2489 23.7777C19.8967 23.925 19.5187 24.0005 19.1369 23.9997ZM5.00007 1.99998C4.20443 1.99998 3.44137 2.31605 2.87877 2.87865C2.31617 3.44125 2.0001 4.2043 2.0001 4.99994V21.1538C1.99974 21.3204 2.04877 21.4834 2.141 21.6222C2.23323 21.761 2.36452 21.8693 2.51829 21.9335C2.67205 21.9977 2.8414 22.0149 3.00493 21.9829C3.16846 21.9509 3.31885 21.8712 3.43709 21.7538L10.3 14.9328C10.4874 14.7466 10.7408 14.642 11.005 14.642C11.2692 14.642 11.5226 14.7466 11.71 14.9328L18.5649 21.7518C18.6832 21.8692 18.8335 21.9489 18.9971 21.9809C19.1606 22.0129 19.33 21.9957 19.4837 21.9315C19.6375 21.8673 19.7688 21.759 19.861 21.6202C19.9532 21.4814 20.0023 21.3184 20.0019 21.1518V4.99994C20.0019 4.2043 19.6858 3.44125 19.1232 2.87865C18.5606 2.31605 17.7976 1.99998 17.0019 1.99998H5.00007Z" fill="#838383"/>
</svg>
