<svg width="15" height="15" viewBox="0 0 15 15" fill="none" xmlns="http://www.w3.org/2000/svg">
<path d="M11.7824 0.217618C11.3331 0.0668691 10.8607 0.000119753 10.3874 0.000119753C9.34492 -0.00738017 8.33318 0.337616 7.49994 0.97436C7.43244 0.92261 7.34994 0.876861 7.27494 0.832611C7.19994 0.786862 7.06494 0.675113 6.95244 0.615113L6.66744 0.487615C6.51745 0.405116 6.3607 0.345116 6.19495 0.291867C6.17995 0.277617 6.15745 0.261867 6.12745 0.247617H6.0832C5.63995 0.0968688 5.18246 0.0143696 4.70996 0.000119753H4.62746C4.41747 0.000119753 4.20822 0.0143696 3.99747 0.0451193H3.90747C3.68247 0.074369 3.45823 0.126868 3.24073 0.201868C0.442508 1.11761 -0.554982 4.15508 0.292509 6.81005C0.772504 8.16679 1.54575 9.39752 2.55074 10.4093C4.01247 11.8193 5.61071 13.0642 7.32744 14.1292L7.52244 14.25L7.70993 14.1367C9.42067 13.0642 11.0099 11.8192 12.4581 10.4168C13.4699 9.40502 14.2424 8.16679 14.7149 6.81005C15.5481 4.15508 14.5506 1.11761 11.7824 0.217618Z" fill="#B7076B"/>
</svg>
