<svg width="157" height="223" viewBox="0 0 157 223" fill="none" xmlns="http://www.w3.org/2000/svg">
<path d="M144.238 0.644756L46.1218 41.802C44.1302 42.6907 42.3899 44.4585 41.1541 46.8484C39.9183 49.2384 39.2513 52.1259 39.25 55.0913V168.954C36.0369 167.846 32.7439 167.273 29.4375 167.247C13.1855 167.247 0 179.73 0 195.123C0 210.516 13.1855 223 29.4375 223C45.6895 223 58.875 210.516 58.875 195.123V93.3389L137.375 60.671V141.082C134.162 139.97 130.869 139.396 127.562 139.37C111.311 139.37 98.125 151.854 98.125 167.247C98.125 182.64 111.311 195.123 127.562 195.123C143.814 195.123 157 182.644 157 167.247V13.9254C156.999 11.7372 156.634 9.58029 155.937 7.62915C155.24 5.67801 154.229 3.98747 152.986 2.69435C151.744 1.40123 150.304 0.541859 148.784 0.185787C147.264 -0.170286 145.707 -0.0130544 144.238 0.644756Z" fill="black"/>
</svg>
