<svg width="28" height="22" viewBox="0 0 28 22" fill="none" xmlns="http://www.w3.org/2000/svg">
<path d="M27.2913 3.67402C27.1727 3.21408 26.9465 2.78894 26.6312 2.43367C26.316 2.0784 25.9208 1.80319 25.4782 1.63075C21.1945 -0.0153712 14.3724 -0.00163888 14 0.000313617C13.6278 -0.00267638 6.8056 -0.0154363 2.52185 1.63075C2.0793 1.80318 1.68409 2.07837 1.36884 2.43362C1.05359 2.78887 0.827337 3.21399 0.70874 3.6739C0.385375 4.91523 0 7.18507 0 10.9493C0 14.7136 0.385375 16.9834 0.708679 18.2247C0.827254 18.6846 1.0535 19.1098 1.36875 19.465C1.68401 19.8203 2.07922 20.0955 2.52179 20.268C6.62256 21.8438 13.0495 21.8986 13.9177 21.8986C13.9952 21.8987 14.0048 21.8987 14.0823 21.8986C14.9512 21.8986 21.3776 21.8437 25.4782 20.268C25.9207 20.0955 26.3159 19.8203 26.6312 19.4651C26.9464 19.1098 27.1727 18.6847 27.2913 18.2248C27.6146 16.9835 28 14.7136 28 10.9493C28 7.18513 27.6146 4.91529 27.2913 3.67402ZM18.2773 11.3654L12.2773 15.3654C12.202 15.4156 12.1145 15.4444 12.0241 15.4488C11.9337 15.4532 11.8438 15.4329 11.7641 15.3902C11.6843 15.3475 11.6176 15.2839 11.571 15.2063C11.5245 15.1287 11.5 15.0399 11.5 14.9493V6.94935C11.5 6.85885 11.5245 6.77004 11.571 6.69239C11.6176 6.61475 11.6843 6.55119 11.7641 6.50849C11.8438 6.46578 11.9337 6.44554 12.0241 6.44991C12.1145 6.45429 12.202 6.48312 12.2773 6.53333L18.2773 10.5333C18.3458 10.579 18.402 10.6409 18.4408 10.7134C18.4797 10.786 18.5 10.867 18.5 10.9493C18.5 11.0317 18.4797 11.1127 18.4408 11.1853C18.402 11.2578 18.3458 11.3197 18.2773 11.3654Z" fill="#FF2323"/>
</svg>
