<svg width="17" height="20" viewBox="0 0 17 20" fill="none" xmlns="http://www.w3.org/2000/svg">
<path fill-rule="evenodd" clip-rule="evenodd" d="M4.2688 6.71381H12.7312C15.0886 6.71381 17 8.58301 17 10.8885V15.8253C17 18.1308 15.0886 20 12.7312 20H4.2688C1.91136 20 0 18.1308 0 15.8253V10.8885C0 8.58301 1.91136 6.71381 4.2688 6.71381ZM8.49492 15.3294C8.99283 15.3294 9.38912 14.9419 9.38912 14.455V12.2489C9.38912 11.7719 8.99283 11.3843 8.49492 11.3843C8.00717 11.3843 7.61088 11.7719 7.61088 12.2489V14.455C7.61088 14.9419 8.00717 15.3294 8.49492 15.3294Z" fill="#B7076B"/>
<path opacity="0.4" d="M14.0228 5.39595V6.86667C13.6672 6.7673 13.2912 6.71761 12.9051 6.71761H12.2446V5.39595C12.2446 3.37868 10.568 1.73903 8.50521 1.73903C6.44245 1.73903 4.76582 3.36874 4.75566 5.37608V6.71761H4.10533C3.70904 6.71761 3.33307 6.7673 2.97742 6.87661V5.39595C2.98758 2.41476 5.4568 0 8.48489 0C11.5536 0 14.0228 2.41476 14.0228 5.39595Z" fill="#B7076B"/>
</svg>
