<svg width="11" height="9" viewBox="0 0 11 9" fill="none" xmlns="http://www.w3.org/2000/svg">
<path d="M10.5076 4.49633C10.5039 4.10147 10.3448 3.72395 10.0648 3.44557L6.84493 0.218252C6.70431 0.078463 6.51408 0 6.3158 0C6.11752 0 5.92729 0.078463 5.78667 0.218252C5.71632 0.288024 5.66049 0.371035 5.62238 0.462495C5.58428 0.553955 5.56466 0.652055 5.56466 0.751135C5.56466 0.850215 5.58428 0.948315 5.62238 1.03978C5.66049 1.13124 5.71632 1.21425 5.78667 1.28402L8.25595 3.74579H0.750541C0.551485 3.74579 0.360582 3.82486 0.219828 3.96562C0.0790748 4.10637 0 4.29727 0 4.49633C0 4.69539 0.0790748 4.88629 0.219828 5.02704C0.360582 5.1678 0.551485 5.24687 0.750541 5.24687H8.25595L5.78667 7.71615C5.64534 7.85648 5.56555 8.04721 5.56484 8.24638C5.56414 8.44554 5.64258 8.63683 5.78292 8.77816C5.92325 8.91949 6.11398 8.99928 6.31315 8.99999C6.51231 9.00069 6.7036 8.92225 6.84493 8.78191L10.0648 5.55459C10.3466 5.27438 10.5059 4.8938 10.5076 4.49633Z" fill="#202727"/>
</svg>
