<svg width="14" height="15" viewBox="0 0 14 15" fill="none" xmlns="http://www.w3.org/2000/svg">
<path fill-rule="evenodd" clip-rule="evenodd" d="M3.6075 0H9.89325C12.21 0 13.5 1.335 13.5 3.6225V11.37C13.5 13.695 12.21 15 9.89325 15H3.6075C1.3275 15 0 13.695 0 11.37V3.6225C0 1.335 1.3275 0 3.6075 0ZM3.81005 3.49502V3.48752H6.0518C6.37505 3.48752 6.63755 3.75002 6.63755 4.07177C6.63755 4.40252 6.37505 4.66502 6.0518 4.66502H3.81005C3.4868 4.66502 3.22505 4.40252 3.22505 4.08002C3.22505 3.75752 3.4868 3.49502 3.81005 3.49502ZM3.81005 8.05501H9.69005C10.0125 8.05501 10.275 7.79251 10.275 7.47001C10.275 7.14751 10.0125 6.88426 9.69005 6.88426H3.81005C3.4868 6.88426 3.22505 7.14751 3.22505 7.47001C3.22505 7.79251 3.4868 8.05501 3.81005 8.05501ZM3.81001 11.4825H9.69001C9.98926 11.4525 10.215 11.1968 10.215 10.8975C10.215 10.59 9.98926 10.335 9.69001 10.305H3.81001C3.58501 10.2825 3.36751 10.3875 3.24751 10.5825C3.12751 10.77 3.12751 11.0175 3.24751 11.2125C3.36751 11.4 3.58501 11.5125 3.81001 11.4825Z" fill="#B7076B"/>
</svg>
