<svg width="13" height="15" viewBox="0 0 13 15" fill="none" xmlns="http://www.w3.org/2000/svg">
<path fill-rule="evenodd" clip-rule="evenodd" d="M10.517 4.047V5.19701C11.8088 5.60022 12.75 6.7696 12.75 8.1663V11.869C12.75 13.5981 11.3165 15 9.54916 15H3.2016C1.43352 15 0 13.5981 0 11.869V8.1663C0 6.7696 0.941961 5.60022 2.23296 5.19701V4.047C2.24059 1.81109 4.0925 0 6.36357 0C8.66512 0 10.517 1.81109 10.517 4.047ZM6.37879 1.30429C7.92586 1.30429 9.18333 2.53404 9.18333 4.04701V5.03528H3.56663V4.03211C3.57425 2.52659 4.83172 1.30429 6.37879 1.30429ZM7.04185 10.8412C7.04185 11.2064 6.74463 11.4971 6.3712 11.4971C6.00539 11.4971 5.70817 11.2064 5.70817 10.8412V9.18662C5.70817 8.82888 6.00539 8.53821 6.3712 8.53821C6.74463 8.53821 7.04185 8.82888 7.04185 9.18662V10.8412Z" fill="#B7076B"/>
</svg>
