<svg width="15" height="14" viewBox="0 0 15 14" fill="none" xmlns="http://www.w3.org/2000/svg">
<path fill-rule="evenodd" clip-rule="evenodd" d="M11.8267 4.03635H15C15 1.48844 13.4733 0 10.8867 0H4.11333C1.52667 0 0 1.48844 0 4.00385V9.49615C0 12.0116 1.52667 13.5 4.11333 13.5H10.8867C13.4733 13.5 15 12.0116 15 9.49615V9.26216H11.8267C10.3539 9.26216 9.16 8.09814 9.16 6.66225C9.16 5.22637 10.3539 4.06235 11.8267 4.06235V4.03635ZM11.8267 5.1543H14.44C14.7493 5.1543 15 5.39875 15 5.70028V7.59821C14.9964 7.89828 14.7478 8.14068 14.44 8.14419H11.8867C11.1411 8.15397 10.4891 7.65627 10.32 6.94824C10.2353 6.50871 10.3542 6.05517 10.6448 5.70916C10.9354 5.36314 11.368 5.16005 11.8267 5.1543ZM11.94 7.14972H12.1867C12.5033 7.14972 12.76 6.89946 12.76 6.59075C12.76 6.28203 12.5033 6.03177 12.1867 6.03177H11.94C11.7886 6.03003 11.6427 6.08747 11.535 6.19127C11.4273 6.29507 11.3667 6.43659 11.3667 6.58425C11.3667 6.89403 11.6223 7.14616 11.94 7.14972ZM3.55332 4.03634H7.78665C8.1033 4.03634 8.35999 3.78608 8.35999 3.47736C8.35999 3.16864 8.1033 2.91838 7.78665 2.91838H3.55332C3.23926 2.91836 2.98364 3.16469 2.97999 3.47086C2.97997 3.78064 3.2356 4.03278 3.55332 4.03634Z" fill="#B7076B"/>
</svg>
