<svg width="22" height="17" viewBox="0 0 22 17" fill="none" xmlns="http://www.w3.org/2000/svg">
<path d="M21.7008 14.3387L17.4165 11.1095C17.2231 10.9638 16.961 10.8828 16.686 10.8828H15.9855C17.1716 9.73944 17.8763 8.30136 17.8763 6.73696C17.8763 3.01544 13.8756 0 8.93815 0C4.00068 0 0 3.01544 0 6.73696C0 10.4585 4.00068 13.4739 8.93815 13.4739C11.0137 13.4739 12.9216 12.9427 14.4386 12.0488V12.5767C14.4386 12.784 14.546 12.9816 14.7394 13.1274L19.0237 16.3566C19.4276 16.661 20.0808 16.661 20.4804 16.3566L21.6965 15.44C22.1004 15.1355 22.1004 14.6432 21.7008 14.3387ZM8.93815 10.8828C5.90004 10.8828 3.43775 9.03012 3.43775 6.73696C3.43775 4.44704 5.89574 2.59114 8.93815 2.59114C11.9763 2.59114 14.4386 4.4438 14.4386 6.73696C14.4386 9.02688 11.9806 10.8828 8.93815 10.8828Z" fill="black"/>
</svg>
