<svg width="22" height="17" viewBox="0 0 22 17" fill="none" xmlns="http://www.w3.org/2000/svg">
<path d="M19.8172 3.55391H3.4375C3.05766 3.55391 2.75 3.28885 2.75 2.96159C2.75 2.63434 3.05766 2.36927 3.4375 2.36927H19.9375C20.3173 2.36927 20.625 2.10421 20.625 1.77695C20.625 0.795557 19.7016 0 18.5625 0H2.75C1.23105 0 0 1.06062 0 2.36927V14.2156C0 15.5243 1.23105 16.5849 2.75 16.5849H19.8172C21.0212 16.5849 22 15.7879 22 14.808V5.33086C22 4.35095 21.0212 3.55391 19.8172 3.55391ZM17.875 11.254C17.1157 11.254 16.5 10.7236 16.5 10.0694C16.5 9.41527 17.1157 8.88477 17.875 8.88477C18.6343 8.88477 19.25 9.41527 19.25 10.0694C19.25 10.7236 18.6343 11.254 17.875 11.254Z" fill="black"/>
</svg>
