<svg width="22" height="25" viewBox="0 0 22 25" fill="none" xmlns="http://www.w3.org/2000/svg">
<path d="M21.8146 13.8152L19.893 6.9014C19.3297 4.87594 18.1056 3.09687 16.4152 1.84699C14.7248 0.597109 12.6651 -0.0518598 10.5635 0.00324029C8.46188 0.0583404 6.43901 0.814348 4.8164 2.15109C3.1938 3.48783 2.06458 5.3286 1.60824 7.38079L0.120498 14.0711C-0.0438359 14.8103 -0.0400364 15.5771 0.131616 16.3146C0.303268 17.0522 0.63839 17.7418 1.11224 18.3326C1.58609 18.9233 2.18657 19.4001 2.86934 19.7277C3.55211 20.0553 4.29975 20.2253 5.05705 20.2253H6.18373C6.41585 21.3685 7.03605 22.3962 7.93922 23.1344C8.8424 23.8727 9.97301 24.2759 11.1395 24.2759C12.306 24.2759 13.4366 23.8727 14.3398 23.1344C15.2429 22.3962 15.8631 21.3685 16.0953 20.2253H16.9428C17.7224 20.2254 18.4914 20.0452 19.1898 19.6988C19.8883 19.3525 20.4971 18.8493 20.9689 18.2287C21.4407 17.6081 21.7626 16.8868 21.9095 16.1212C22.0564 15.3556 22.0242 14.5663 21.8156 13.8152H21.8146ZM11.1395 22.2481C10.5142 22.2455 9.90497 22.0498 9.39516 21.6877C8.88536 21.3256 8.49987 20.8149 8.29144 20.2253H13.9875C13.7791 20.8149 13.3936 21.3256 12.8838 21.6877C12.374 22.0498 11.7648 22.2455 11.1395 22.2481ZM19.358 17.0041C19.0761 17.378 18.711 17.681 18.2916 17.889C17.8721 18.097 17.41 18.2044 16.9418 18.2026H5.05705C4.60272 18.2025 4.15421 18.1004 3.74462 17.9038C3.33503 17.7072 2.97482 17.4211 2.69058 17.0667C2.40634 16.7123 2.20532 16.2985 2.10236 15.856C1.9994 15.4135 1.99714 14.9535 2.09572 14.51L3.58245 7.81872C3.94084 6.20679 4.82777 4.76091 6.10226 3.71094C7.37676 2.66097 8.96565 2.06717 10.6164 2.02393C12.2671 1.98068 13.8849 2.49048 15.2126 3.47228C16.5403 4.45408 17.5018 5.85153 17.9441 7.44249L19.8657 14.3563C19.9927 14.8067 20.0129 15.2806 19.9247 15.7402C19.8366 16.1998 19.6426 16.6326 19.358 17.0041Z" fill="#838383"/>
</svg>
