<svg width="16" height="15" viewBox="0 0 16 15" fill="none" xmlns="http://www.w3.org/2000/svg">
<path fill-rule="evenodd" clip-rule="evenodd" d="M5.92151 6.9225C5.59339 6.9225 5.33394 7.1775 5.33394 7.5C5.33394 7.815 5.59339 8.0775 5.92151 8.0775H10.5V11.6625C10.5 13.5 8.98147 15 7.10429 15H3.38808C1.51853 15 0 13.5075 0 11.67V3.3375C0 1.4925 1.52616 0 3.39571 0H7.11955C8.98147 0 10.5 1.4925 10.5 3.33V6.9225H5.92151ZM13.2226 4.90516L15.4126 7.08766C15.5251 7.20016 15.5851 7.34266 15.5851 7.50016C15.5851 7.65016 15.5251 7.80016 15.4126 7.90516L13.2226 10.0877C13.1101 10.2002 12.9601 10.2602 12.8176 10.2602C12.6676 10.2602 12.5176 10.2002 12.4051 10.0877C12.1801 9.86266 12.1801 9.49516 12.4051 9.27016L13.6051 8.07766H10.5001V6.92266H13.6051L12.4051 5.73016C12.1801 5.50516 12.1801 5.13766 12.4051 4.91266C12.6301 4.68016 12.9976 4.68016 13.2226 4.90516Z" fill="#B7076B"/>
</svg>
