<svg width="62" height="11" viewBox="0 0 62 11" fill="none" xmlns="http://www.w3.org/2000/svg">
<g clip-path="url(#clip0_140_1193)">
<path opacity="0.35" d="M39.6672 2.74988C39.6672 1.65297 40.5516 0.763763 41.6427 0.763763H56.8387C57.9298 0.763763 58.8142 1.65297 58.8142 2.74988V8.24988C58.8142 9.34674 57.9298 10.236 56.8387 10.236H41.6427C40.5516 10.236 39.6672 9.34674 39.6672 8.24988V2.74988Z" stroke="black"/>
<path opacity="0.4" d="M60.175 3.66666V7.33332C60.9087 7.02277 61.3858 6.30036 61.3858 5.49999C61.3858 4.69962 60.9087 3.9772 60.175 3.66666Z" fill="black"/>
<path d="M41.0298 3.14713C41.0298 2.59024 41.4789 2.13879 42.0328 2.13879H56.4386C56.9925 2.13879 57.4416 2.59024 57.4416 3.14713V7.85268C57.4416 8.40957 56.9925 8.86102 56.4386 8.86102H42.0328C41.4789 8.86102 41.0298 8.40957 41.0298 7.85269V3.14713Z" fill="black"/>
<path fill-rule="evenodd" clip-rule="evenodd" d="M27.6513 2.39052C29.6716 2.39062 31.6148 3.1711 33.0791 4.57067C33.1893 4.67872 33.3656 4.67735 33.4741 4.56761L34.5281 3.49817C34.5831 3.4425 34.6138 3.3671 34.6133 3.28866C34.6129 3.21021 34.5813 3.13518 34.5257 3.08017C30.6825 -0.622752 24.6195 -0.622752 20.7763 3.08017C20.7207 3.13514 20.689 3.21014 20.6886 3.28859C20.688 3.36704 20.7186 3.44246 20.7735 3.49817L21.8279 4.56761C21.9364 4.67752 22.1127 4.67888 22.223 4.57067C23.6874 3.17101 25.6307 2.39052 27.6513 2.39052ZM27.6513 5.86989C28.7613 5.86982 29.8318 6.28464 30.6547 7.03375C30.7659 7.14007 30.9413 7.13776 31.0498 7.02855L32.1026 5.95911C32.158 5.90302 32.1887 5.82691 32.1879 5.74784C32.1871 5.66876 32.1548 5.59331 32.0983 5.53836C29.5926 3.19501 25.7122 3.19501 23.2065 5.53836C23.1499 5.59331 23.1176 5.6688 23.1168 5.74791C23.116 5.82701 23.147 5.9031 23.2025 5.95911L24.255 7.02855C24.3634 7.13776 24.5388 7.14007 24.6501 7.03375C25.4724 6.28514 26.542 5.87035 27.6513 5.86989ZM29.7602 8.21089C29.7618 8.29019 29.7308 8.36664 29.6745 8.42219L27.8534 10.2699C27.8001 10.3242 27.7272 10.3547 27.6513 10.3547C27.5754 10.3547 27.5025 10.3242 27.4492 10.2699L25.6278 8.42219C25.5715 8.36659 25.5406 8.29012 25.5422 8.21082C25.5439 8.13152 25.5781 8.05643 25.6366 8.00327C26.7997 7.0143 28.5029 7.0143 29.666 8.00327C29.7245 8.05648 29.7586 8.13159 29.7602 8.21089Z" fill="black"/>
<path fill-rule="evenodd" clip-rule="evenodd" d="M15.1967 0.610901H14.2849C13.7814 0.610901 13.3732 1.02131 13.3732 1.52756V9.47204C13.3732 9.97831 13.7814 10.3887 14.2849 10.3887H15.1967C15.7003 10.3887 16.1085 9.97831 16.1085 9.47204V1.52756C16.1085 1.02131 15.7003 0.610901 15.1967 0.610901ZM10.03 2.74979H10.9418C11.4453 2.74979 11.8535 3.16019 11.8535 3.66646V9.47204C11.8535 9.97831 11.4453 10.3887 10.9418 10.3887H10.03C9.52644 10.3887 9.11824 9.97831 9.11824 9.47204V3.66646C9.11824 3.16019 9.52644 2.74979 10.03 2.74979ZM6.68689 4.88868H5.77513C5.27157 4.88868 4.86336 5.29909 4.86336 5.80535V9.47204C4.86336 9.97831 5.27157 10.3887 5.77513 10.3887H6.68689C7.19044 10.3887 7.59866 9.97831 7.59866 9.47204V5.80535C7.59866 5.29909 7.19044 4.88868 6.68689 4.88868ZM2.43199 6.72201H1.52022C1.01667 6.72201 0.608459 7.13242 0.608459 7.63868V9.47204C0.608459 9.97831 1.01667 10.3887 1.52022 10.3887H2.43199C2.93555 10.3887 3.34375 9.97831 3.34375 9.47204V7.63868C3.34375 7.13242 2.93555 6.72201 2.43199 6.72201Z" fill="black"/>
</g>
<defs>
<clipPath id="clip0_140_1193">
<rect width="62" height="11" fill="white"/>
</clipPath>
</defs>
</svg>
