<svg width="4" height="14" viewBox="0 0 4 14" fill="none" xmlns="http://www.w3.org/2000/svg">
<path d="M3.62963 7C3.62963 7.35894 3.52319 7.70981 3.32378 8.00826C3.12437 8.3067 2.84093 8.53931 2.50932 8.67667C2.1777 8.81403 1.8128 8.84997 1.46076 8.77995C1.10872 8.70992 0.785355 8.53708 0.531548 8.28327C0.277742 8.02946 0.104897 7.70609 0.034872 7.35405C-0.0351531 7.00201 0.000786329 6.63712 0.138145 6.3055C0.275504 5.97389 0.508114 5.69045 0.806559 5.49104C1.105 5.29162 1.45588 5.18519 1.81482 5.18519C2.29599 5.18566 2.75732 5.37702 3.09756 5.71726C3.4378 6.0575 3.62916 6.51883 3.62963 7ZM1.81482 3.62963C2.17375 3.62963 2.52463 3.52319 2.82307 3.32378C3.12152 3.12436 3.35413 2.84093 3.49149 2.50932C3.62885 2.1777 3.66479 1.8128 3.59476 1.46076C3.52474 1.10872 3.35189 0.785354 3.09808 0.531548C2.84428 0.277741 2.52091 0.104897 2.16887 0.034872C1.81683 -0.0351531 1.45193 0.000786329 1.12032 0.138145C0.788703 0.275504 0.505267 0.508114 0.305852 0.806559C0.106438 1.105 9.77567e-07 1.45588 9.77567e-07 1.81482C0.000476119 2.29599 0.191832 2.75732 0.532073 3.09756C0.872314 3.4378 1.33364 3.62916 1.81482 3.62963ZM1.81482 10.3704C1.45588 10.3704 1.105 10.4768 0.806559 10.6762C0.508114 10.8756 0.275504 11.1591 0.138145 11.4907C0.000786329 11.8223 -0.0351531 12.1872 0.034872 12.5392C0.104897 12.8913 0.277742 13.2146 0.531548 13.4685C0.785355 13.7223 1.10872 13.8951 1.46076 13.9651C1.8128 14.0352 2.1777 13.9992 2.50932 13.8619C2.84093 13.7245 3.12437 13.4919 3.32378 13.1934C3.52319 12.895 3.62963 12.5441 3.62963 12.1852C3.62916 11.704 3.4378 11.2427 3.09756 10.9024C2.75732 10.5622 2.29599 10.3708 1.81482 10.3704Z" fill="#151515"/>
</svg>
