<svg width="14" height="15" viewBox="0 0 14 15" fill="none" xmlns="http://www.w3.org/2000/svg">
<path fill-rule="evenodd" clip-rule="evenodd" d="M10.4477 3.75C10.4716 3.69685 10.4828 3.63892 10.4804 3.58074H10.5C10.4161 1.57943 8.76367 0 6.75371 0C4.74375 0 3.09129 1.57943 3.00742 3.58074C2.99753 3.63673 2.99753 3.69401 3.00742 3.75H2.94878C1.98766 3.75 0.960258 4.38448 0.661979 6.09005L0.0786784 10.7361C-0.398568 14.1472 1.35796 15 3.6514 15H9.86886C12.1557 15 13.8592 13.7652 13.4349 10.7361L12.8583 6.09005C12.507 4.43223 11.5127 3.75 10.5648 3.75H10.4477ZM9.36991 3.75C9.34903 3.69596 9.33797 3.63865 9.33724 3.58074C9.33724 2.14262 8.16739 0.976788 6.72431 0.976788C5.28123 0.976788 4.11138 2.14262 4.11138 3.58074C4.12127 3.63673 4.12127 3.69401 4.11138 3.75H9.36991ZM4.57277 7.61142C4.20669 7.61142 3.90992 7.30597 3.90992 6.92919C3.90992 6.5524 4.20669 6.24695 4.57277 6.24695C4.93884 6.24695 5.23561 6.5524 5.23561 6.92919C5.23561 7.30597 4.93884 7.61142 4.57277 7.61142ZM8.25154 6.92919C8.25154 7.30597 8.5483 7.61142 8.91438 7.61142C9.28046 7.61142 9.57722 7.30597 9.57722 6.92919C9.57722 6.5524 9.28046 6.24695 8.91438 6.24695C8.5483 6.24695 8.25154 6.5524 8.25154 6.92919Z" fill="#B7076B"/>
</svg>
